<svg xmlns="http://www.w3.org/2000/svg" viewBox="0 0 256 256"><path d="M221 234l-3-2-3-1-4-1-2-1-3-2-3-1-2-1c-2 0-5-2-9-6l-6-7-5-6c-5-5-6-5-10-6l-7 1-3 2-4 2-2 1c-1 0-6 5-6 7l-1 3-1 3 1 2 1 2-1 2-1-1-2-1c-3 0-4-1-5-3 0-2-2-5-4-6l-2-4-1-2-1-1-1-2-1-2-2-2-3-2-3-5-6-3c-4 0-7-1-8-3l-2-5-1-1-2-4c-3-2-6-3-6-1l-1 1-3 1-4 2-2 1-3 1-2 1c0 2-5 2-7 1l-3-1h-2l-6-1-6-1-4-1c-3 0-9 4-8 6l-1 2-2 3-1 1-1 4-1 4c-2 0-6-3-6-4l-4-9-1-4c0-7-1-10-4-10h-3l-2-1-5-4-6-3-2-1 2-1 2-1 3-1 4-2 5-1 5-1 7-2 6-1 2-1 10-8c5-5 5-5 5-10l-1-5-2-6-1-7-1-6-1-3-2-5-4-4c-2-3-3-4-3-7l-2-5-2-3v-3l-1-3c0-4 2-4 5 0 2 2 3 3 4 2l1 1 2 1 3 1 2 1 2 1 1 1 9 4 6 1c5 0 6 0 8-2l2-4 2-1 10-8c3-3 5-4 7-4l3-1 3-2 2-2 2-3c2-1 2-2 2-17l-1-17-1-2c1-1 9 0 9 1l1 1c2 0 15 13 15 15a55 55 0 0014 13l14 2 4-3 1-2 1-2 2-3 3-4 1-1 1-1c-1-1 0-3 2-4 2-2 2-2 3-1l1 3c0 2 0 2 2 3 1 0 5 6 5 9l1 1 1 4 2 5 1 2 7 8 7 7h5l6-1 3-2c2-1 5-2 6-4l4-2 1-1 1-1 5-2h1l3 1 2 1-2 3-3 3-2 2-2 3c1 2-3 7-5 6l-4 3-5 3c-3 1-9 7-9 9l-2 2c-2 0-3 1-3 2l-1 4-1 3-1 4-1 3-2 3-2 4c-2 3-2 6-1 9l1 5c2 0 1 6 0 8l-1 10 1 10 1 4 1 2 1 5 1 6v5l1 4 1 2 1 1 1 2 1 4v1l2 2 2 2 1 1v3l1 3 1 3 2 4 2 2 3 4c3 3 3 5-1 5l-3-1zm-64-92l3-2c2 0 7-6 7-9l1-4c2-1-4-9-10-12-3-3-6-3-11-4-7 0-7 0-11 3-3 3-3 4-3 11v8l4 4 7 6c3 2 10 1 13-1z" fill="#5d00c5"/><path d="M147 147c-5 0-8-2-13-7l-4-4v-11c0-10 0-10 3-14l3-3h10c10 1 11 1 15 4 7 4 11 10 11 15l-1 4-1 3-3 6-4 3-3 2c-3 2-8 3-13 2z" fill="#c126f8"/></svg>
